<svg xmlns="http://www.w3.org/2000/svg" xmlns:xlink="http://www.w3.org/1999/xlink" version="1.1"  x="0px" y="0px" width="32" height="32" viewBox="0 0 24 24" style="enable-background:new 0 0 24 24;" xml:space="preserve" viewbox="0 0 32 32">

<rect class="st2" width="24" height="24" style="fill:none;;"></rect>
<path id="581045031_shock_x5F_color" class="stshockcolor" d="M20,4c0-1.104-0.896-2-2-2H6C4.896,2,4,2.896,4,4v16c0,1.104,0.896,2,2,2h12  c1.104,0,2-0.896,2-2V4z" style="fill:#CFD8DC;;" data-st="fill:#CFD8DC;;"></path>
<path class="st0" d="M8,6H6V4h2V6z M18,4h-8v2h8V4z M8,8H6v2h2V8z M18,8h-8v2h8V8z" style="opacity:0.8;fill:#263238;;"></path>
<polygon class="st4" points="17.71,12.71 11,19.41 7.29,15.71 8.71,14.29 11,16.59 16.29,11.29 " style="fill:#388E3C;;"></polygon>
<polygon class="st1" points="11,16.59 11,19.41 7.29,15.71 8.71,14.29 " style="opacity:0.2;fill:#FFFFFF;;"></polygon>
</svg>