<svg xmlns="http://www.w3.org/2000/svg" xmlns:xlink="http://www.w3.org/1999/xlink" version="1.1"  x="0px" y="0px" width="32" height="32" viewBox="0 0 24 24" style="enable-background:new 0 0 24 24;" xml:space="preserve" viewbox="0 0 32 32">

<rect class="st2" width="24" height="24" style="fill:none;;"></rect>
<path id="581045052_shock_x5F_color" class="stshockcolor" d="M16,13c-3,0-6,2-6,4v2h12v-2C22,15,19,13,16,13z M19,8c0-1.657-1.344-3-3-3s-3,1.343-3,3  s1.344,3,3,3S19,9.657,19,8z" style="fill:#26C6DA;;" data-st="fill:#26C6DA;;"></path>
<path class="st0" d="M8,13c-3,0-6,2-6,4v2h12v-2C14,15,11,13,8,13z M11,8c0-1.657-1.343-3-3-3S5,6.343,5,8s1.343,3,3,3  S11,9.657,11,8z" style="fill:#1E88E5;;"></path>
</svg>