<svg xmlns="http://www.w3.org/2000/svg" xmlns:xlink="http://www.w3.org/1999/xlink" version="1.1"  x="0px" y="0px" width="32" height="32" viewBox="0 0 24 24" style="enable-background:new 0 0 24 24;" xml:space="preserve" viewbox="0 0 32 32">

<rect class="st2" width="24" height="24" style="fill:none;;"></rect>
<path id="583245789_shock_x5F_color_grid" class="stshockcolor" d="M21,15.5c0,2.82-1.68,4.5-4.5,4.5H15c0.55,0,1,0.45,1,1s-0.45,1-1,1H7c-0.55,0-1-0.45-1-1  s0.45-1,1-1h0.14C4.67,18.65,3,16.02,3,13c0-0.55,0.45-1,1-1h14c0.55,0,1,0.45,1,1v0.05C19.87,13.22,21,13.86,21,15.5z M20,15.5  c0-0.99-0.62-1.33-1.07-1.45C18.67,16.02,17.7,17.76,16.28,19h0.22C19.54,19,20,16.81,20,15.5z M7,9.5  c0-1.293,0.627-1.92,1.354-2.646C9.125,6.082,10,5.207,10,3.5C10,3.224,9.776,3,9.5,3S9,3.224,9,3.5c0,1.293-0.627,1.92-1.354,2.646  C6.875,6.918,6,7.793,6,9.5C6,9.776,6.224,10,6.5,10S7,9.776,7,9.5z M11,10.5c0-1.293,0.627-1.92,1.354-2.646  C13.125,7.082,14,6.207,14,4.5C14,4.224,13.776,4,13.5,4S13,4.224,13,4.5c0,1.293-0.627,1.92-1.354,2.646  C10.875,7.918,10,8.793,10,10.5c0,0.276,0.224,0.5,0.5,0.5S11,10.776,11,10.5z M16,9.5c0-1.293,0.627-1.92,1.354-2.646  C18.125,6.082,19,5.207,19,3.5C19,3.224,18.776,3,18.5,3S18,3.224,18,3.5c0,1.293-0.627,1.92-1.354,2.646  C15.875,6.918,15,7.793,15,9.5c0,0.276,0.224,0.5,0.5,0.5S16,9.776,16,9.5z" style="fill:#B0BEC5;;" data-st="fill:#B0BEC5;;"></path>
<path class="st1" d="M19,13c0,3.02-1.67,5.65-4.14,7H7.14C4.67,18.65,3,16.02,3,13c0-0.55,0.45-1,1-1h14C18.55,12,19,12.45,19,13z" style="opacity:0.8;fill:#FFFFFF;;"></path>
</svg>