<svg xmlns="http://www.w3.org/2000/svg" xmlns:xlink="http://www.w3.org/1999/xlink" version="1.1"  x="0px" y="0px" width="32" height="32" viewBox="0 0 24 24" style="enable-background:new 0 0 24 24;" xml:space="preserve" viewbox="0 0 32 32">

<path class="st3" d="M0,0h24v24H0V0z" style="fill:none;;"></path>
<polygon id="581045054_shock_x5F_color" class="stshockcolor" points="15,9 15,6.5 12,4 9,6.5 9,9 3,9 3,20 21,20 21,9 " style="fill:#546E7A;;"></polygon>
<path class="st1" d="M5,15h2v2H5V15z M5,11h2v2H5V11z M11,11h2v2h-2V11z M11,7h2v2h-2V7z M17,15h2v2h-2V15z M17,11h2v2h-2V11z" style="fill:#B2EBF2;;"></path>
<path class="st0" d="M9,20v-2c0,0,0-3,3-3s3,3,3,3v2H9z" style="opacity:0.6;fill:#FFFFFF;;"></path>
</svg>