<svg xmlns="http://www.w3.org/2000/svg" xmlns:xlink="http://www.w3.org/1999/xlink" version="1.1"  x="0px" y="0px" width="32" height="32" viewBox="0 0 24 24" style="enable-background:new 0 0 24 24;" xml:space="preserve" viewbox="0 0 32 32">

<rect class="st2" width="24" height="24" style="fill:none;;"></rect>
<path id="58844775_shock_x5F_color" class="stshockcolor" d="M20,4c0,0.33,0,0.44,0,0.44v15.12c0,0,0,0.11,0,0.44c0,2-2,2-2,2S8,22,6,22s-2-2-2-2V4  c0,0,0-2,2-2s12,0,12,0S20,2,20,4z" style="fill:#546E7A;;" data-st="fill:#546E7A;;"></path>
<polygon class="st3" points="8.71,7.29 7.29,8.71 10.58,12 7.29,15.29 8.71,16.71 12,13.42 12,19 4,19 4,5 12,5 12,10.58 " style="opacity:0.4;fill:#FFFFFF;;"></polygon>
<polygon class="st1" points="20,5 20,19 12,19 12,13.42 15.29,16.71 16.71,15.29 13.42,12 16.71,8.71 15.29,7.29 12,10.58 12,5 " style="opacity:0.2;fill:#FFFFFF;;"></polygon>
</svg>